<svg version="1.1" id="Layer_1" xmlns="http://www.w3.org/2000/svg" xmlns:xlink="http://www.w3.org/1999/xlink" x="0px" y="0px"
	 width="100%" viewBox="0 0 679 798" enable-background="new 0 0 679 798" xml:space="preserve">
<path fill="#FFFFFF" opacity="1.000000" stroke="none" 
	d="
M430.000000,799.000000 
	C286.666656,799.000000 143.833328,799.000000 1.000000,799.000000 
	C1.000000,533.000000 1.000000,267.000000 1.000000,1.000000 
	C227.333328,1.000000 453.666656,1.000000 680.000000,1.000000 
	C680.000000,267.000000 680.000000,533.000000 680.000000,799.000000 
	C596.833313,799.000000 513.666687,799.000000 430.000000,799.000000 
M283.384155,397.025482 
	C283.125397,397.310516 282.866638,397.595520 282.179260,397.909027 
	C282.179260,397.909027 281.920807,398.252136 281.065552,398.068573 
	C280.661743,396.262756 279.908783,394.457550 279.905609,392.651031 
	C279.839569,355.168793 279.930328,317.686066 279.752930,280.204559 
	C279.734650,276.347717 278.896576,272.177460 277.261932,268.707001 
	C272.918396,259.485291 264.803284,256.450897 255.059235,256.484863 
	C232.236908,256.564423 209.414108,256.490723 186.591553,256.519897 
	C177.100098,256.532013 167.579544,256.203705 158.124542,256.825592 
	C145.185471,257.676636 137.190231,266.717804 137.189072,279.611725 
	C137.176849,416.380585 137.172104,553.149414 137.196838,689.918274 
	C137.198639,699.923401 141.826462,707.017212 151.669418,711.437561 
	C154.602554,711.909607 157.534500,712.783264 160.469009,712.792053 
	C192.573044,712.887390 224.677689,712.898804 256.781433,712.761230 
	C259.816315,712.748230 262.846222,711.568848 266.570618,710.809998 
	C275.703461,706.298157 279.932648,699.016052 279.915192,688.767761 
	C279.831238,639.500427 279.928345,590.232727 280.646606,540.952698 
	C282.143555,539.995422 283.640472,539.038147 285.708527,538.016052 
	C286.144135,537.652588 286.579742,537.289124 287.543091,536.880127 
	C287.760193,536.621155 287.977295,536.362122 288.064728,536.080994 
	C288.064728,536.080994 288.075043,536.212097 288.678680,536.164612 
	C289.129761,535.782776 289.580841,535.400940 290.718262,534.905701 
	C324.895050,513.539062 359.079498,492.184723 393.246826,470.802948 
	C444.218872,438.904907 495.163086,406.962311 546.155884,375.097443 
	C557.685303,367.892853 564.938293,358.051697 564.955994,344.123962 
	C565.059021,262.799316 565.045166,181.474426 564.899475,100.149925 
	C564.893250,96.650032 563.798645,92.845207 562.182129,89.713539 
	C557.633423,80.901459 549.794800,78.019325 540.164307,78.025948 
	C414.011017,78.112724 287.857574,78.081612 161.704193,78.080910 
	C160.704346,78.080902 159.703079,78.059181 158.704880,78.102951 
	C146.564743,78.635353 137.282715,87.910156 137.240509,100.023781 
	C137.125534,133.019730 137.075333,166.017166 137.328262,199.011475 
	C137.357162,202.781876 138.858780,206.880310 140.738785,210.231247 
	C145.661285,219.005066 154.073410,220.784256 163.439377,220.781128 
	C241.596146,220.755051 319.752960,220.845840 397.909760,220.924530 
	C413.425873,220.940155 422.353241,229.706711 422.358826,244.813431 
	C422.364838,261.145050 421.988434,277.488098 422.489532,293.804321 
	C422.836151,305.090759 418.193207,312.747284 408.826569,318.522217 
	C383.872345,333.907593 359.057556,349.519745 334.232452,365.113678 
	C317.741760,375.472351 301.328674,385.954620 284.464600,396.341187 
	C284.181580,396.459717 284.010529,396.669647 283.989349,397.006226 
	C283.989349,397.006226 283.976166,396.956390 283.384155,397.025482 
M419.327454,489.961487 
	C382.517700,513.002197 345.707977,536.042969 308.109528,559.577393 
	C399.654480,615.649414 490.392365,671.227112 581.982300,727.326721 
	C581.982300,724.605530 581.982422,723.287598 581.982361,721.969604 
	C581.979919,683.303711 581.901123,644.637512 582.014648,605.971985 
	C582.056641,591.674927 576.016907,580.816833 563.990112,573.532227 
	C517.830688,545.573486 471.571655,517.778931 425.278503,490.042145 
	C423.895752,489.213684 421.722687,489.704285 419.327454,489.961487 
z"/>
<path fill="#294BF4" opacity="1.000000" stroke="none" 
	d="
M287.015381,536.925598 
	C286.579742,537.289124 286.144135,537.652588 285.120728,537.917725 
	C283.465973,537.572815 282.398956,537.326233 281.456909,537.108582 
	C281.010559,535.701538 280.581970,534.350586 280.032013,532.666504 
	C279.988800,531.874023 280.067017,531.414612 280.395660,530.685791 
	C280.481415,528.293091 280.316711,526.169861 280.026489,523.589478 
	C279.878906,487.390289 279.854279,451.648407 279.848297,415.906494 
	C279.848145,414.921021 280.048401,413.935486 280.407684,412.668823 
	C280.488556,409.941223 280.316925,407.494751 280.028503,404.713379 
	C279.993744,403.919098 280.075836,403.459717 280.386658,402.769226 
	C281.050537,401.109497 281.485657,399.680817 281.920776,398.252136 
	C281.920807,398.252136 282.179260,397.909027 282.682739,397.844360 
	C283.449524,397.505249 283.712860,397.230804 283.976166,396.956390 
	C283.976166,396.956390 283.989349,397.006226 284.155548,396.940918 
	C284.568054,396.778748 284.754395,396.614044 284.880829,396.381592 
	C301.328674,385.954620 317.741760,375.472351 334.232452,365.113678 
	C359.057556,349.519745 383.872345,333.907593 408.826569,318.522217 
	C418.193207,312.747284 422.836151,305.090759 422.489532,293.804321 
	C421.988434,277.488098 422.364838,261.145050 422.358826,244.813431 
	C422.353241,229.706711 413.425873,220.940155 397.909760,220.924530 
	C319.752960,220.845840 241.596146,220.755051 163.439377,220.781128 
	C154.073410,220.784256 145.661285,219.005066 140.738785,210.231247 
	C138.858780,206.880310 137.357162,202.781876 137.328262,199.011475 
	C137.075333,166.017166 137.125534,133.019730 137.240509,100.023781 
	C137.282715,87.910156 146.564743,78.635353 158.704880,78.102951 
	C159.703079,78.059181 160.704346,78.080902 161.704193,78.080910 
	C287.857574,78.081612 414.011017,78.112724 540.164307,78.025948 
	C549.794800,78.019325 557.633423,80.901459 562.182129,89.713539 
	C563.798645,92.845207 564.893250,96.650032 564.899475,100.149925 
	C565.045166,181.474426 565.059021,262.799316 564.955994,344.123962 
	C564.938293,358.051697 557.685303,367.892853 546.155884,375.097443 
	C495.163086,406.962311 444.218872,438.904907 393.246826,470.802948 
	C359.079498,492.184723 324.895050,513.539062 290.060852,534.982483 
	C288.960632,535.443542 288.517853,535.827820 288.075073,536.212097 
	C288.075043,536.212097 288.064728,536.080994 287.880493,536.143860 
	C287.469299,536.446350 287.242340,536.685974 287.015381,536.925598 
M289.412323,527.482910 
	C289.412323,527.482910 289.523102,527.416931 289.412323,527.482910 
z"/>
<path fill="#294BF4" opacity="1.000000" stroke="none" 
	d="
M281.493164,398.160339 
	C281.485657,399.680817 281.050537,401.109497 280.260742,402.433716 
	C278.388336,397.166443 276.122864,401.620544 275.007019,402.306274 
	C244.242569,421.212860 213.585770,440.294495 182.898117,459.326202 
	C171.504807,466.392029 171.436447,473.907745 182.746826,481.270599 
	C183.304733,481.633820 183.872589,481.981812 184.437592,482.334076 
	C214.515335,501.085907 244.586899,519.847778 274.688293,538.561584 
	C276.345917,539.592102 278.251740,540.223389 280.021973,541.021545 
	C280.001892,541.002563 279.961182,540.965210 279.961182,540.965210 
	C279.928345,590.232727 279.831238,639.500427 279.915192,688.767761 
	C279.932648,699.016052 275.703461,706.298157 265.764740,710.849365 
	C227.018433,710.900269 189.077988,710.911804 151.137558,710.923340 
	C141.826462,707.017212 137.198639,699.923401 137.196838,689.918274 
	C137.172104,553.149414 137.176849,416.380585 137.189072,279.611725 
	C137.190231,266.717804 145.185471,257.676636 158.124542,256.825592 
	C167.579544,256.203705 177.100098,256.532013 186.591553,256.519897 
	C209.414108,256.490723 232.236908,256.564423 255.059235,256.484863 
	C264.803284,256.450897 272.918396,259.485291 277.261932,268.707001 
	C278.896576,272.177460 279.734650,276.347717 279.752930,280.204559 
	C279.930328,317.686066 279.839569,355.168793 279.905609,392.651031 
	C279.908783,394.457550 280.661743,396.262756 281.493164,398.160339 
z"/>
<path fill="#294BF4" opacity="1.000000" stroke="none" 
	d="
M419.622772,489.770691 
	C421.722687,489.704285 423.895752,489.213684 425.278503,490.042145 
	C471.571655,517.778931 517.830688,545.573486 563.990112,573.532227 
	C576.016907,580.816833 582.056641,591.674927 582.014648,605.971985 
	C581.901123,644.637512 581.979919,683.303711 581.982361,721.969604 
	C581.982422,723.287598 581.982300,724.605530 581.982300,727.326721 
	C490.392365,671.227112 399.654480,615.649414 308.109528,559.577393 
	C345.707977,536.042969 382.517700,513.002197 419.622772,489.770691 
z"/>
<path fill="#5672E5" opacity="1.000000" stroke="none" 
	d="
M151.403488,711.180420 
	C189.077988,710.911804 227.018433,710.900269 265.418640,710.909851 
	C262.846222,711.568848 259.816315,712.748230 256.781433,712.761230 
	C224.677689,712.898804 192.573044,712.887390 160.469009,712.792053 
	C157.534500,712.783264 154.602554,711.909607 151.403488,711.180420 
z"/>
<path fill="#294BF4" opacity="1.000000" stroke="none" 
	d="
M280.153412,532.999634 
	C280.581970,534.350586 281.010559,535.701538 281.456909,537.108582 
	C282.398956,537.326233 283.465973,537.572815 284.835175,537.950134 
	C283.640472,539.038147 282.143555,539.995422 280.303894,540.958984 
	C279.961182,540.965210 280.001892,541.002563 279.948456,540.578247 
	C279.981140,537.769226 280.067261,535.384399 280.153412,532.999634 
z"/>
<path fill="#294BF4" opacity="1.000000" stroke="none" 
	d="
M288.376892,536.188354 
	C288.517853,535.827820 288.960632,535.443542 289.717682,535.039185 
	C289.580841,535.400940 289.129761,535.782776 288.376892,536.188354 
z"/>
<path fill="#294BF4" opacity="1.000000" stroke="none" 
	d="
M284.672729,396.361389 
	C284.754395,396.614044 284.568054,396.778748 284.136597,396.923279 
	C284.010529,396.669647 284.181580,396.459717 284.672729,396.361389 
z"/>
<path fill="#294BF4" opacity="1.000000" stroke="none" 
	d="
M283.680176,396.990936 
	C283.712860,397.230804 283.449524,397.505249 282.897034,397.830109 
	C282.866638,397.595520 283.125397,397.310516 283.680176,396.990936 
z"/>
<path fill="#294BF4" opacity="1.000000" stroke="none" 
	d="
M287.279236,536.902832 
	C287.242340,536.685974 287.469299,536.446350 287.945343,536.154907 
	C287.977295,536.362122 287.760193,536.621155 287.279236,536.902832 
z"/>
<path fill="#FCFDFF" opacity="1.000000" stroke="none" 
	d="
M280.032013,532.666504 
	C280.067261,535.384399 279.981140,537.769226 279.968506,540.597290 
	C278.251740,540.223389 276.345917,539.592102 274.688293,538.561584 
	C244.586899,519.847778 214.515335,501.085907 184.437592,482.334076 
	C183.872589,481.981812 183.304733,481.633820 182.746826,481.270599 
	C171.436447,473.907745 171.504807,466.392029 182.898117,459.326202 
	C213.585770,440.294495 244.242569,421.212860 275.007019,402.306274 
	C276.122864,401.620544 278.388336,397.166443 280.031982,402.664795 
	C280.075836,403.459717 279.993744,403.919098 279.902985,405.137878 
	C279.981262,408.248169 280.068237,410.599091 280.155212,412.949982 
	C280.048401,413.935486 279.848145,414.921021 279.848297,415.906494 
	C279.854279,451.648407 279.878906,487.390289 279.899475,524.007080 
	C279.980408,526.906372 280.062805,528.930786 280.145203,530.955261 
	C280.067017,531.414612 279.988800,531.874023 280.032013,532.666504 
z"/>
<path fill="#294BF4" opacity="1.000000" stroke="none" 
	d="
M280.407715,412.668823 
	C280.068237,410.599091 279.981262,408.248169 280.019775,405.472778 
	C280.316925,407.494751 280.488556,409.941223 280.407715,412.668823 
z"/>
<path fill="#294BF4" opacity="1.000000" stroke="none" 
	d="
M280.395691,530.685791 
	C280.062805,528.930786 279.980408,526.906372 280.024994,524.464294 
	C280.316711,526.169861 280.481415,528.293091 280.395691,530.685791 
z"/>
<path fill="#294BF4" opacity="1.000000" stroke="none" 
	d="
M289.467712,527.449951 
	C289.523102,527.416931 289.412323,527.482910 289.467712,527.449951 
z"/>
</svg>